<?xml version="1.0" encoding="utf-8"?>
<!-- Generator: Adobe Illustrator 19.0.0, SVG Export Plug-In . SVG Version: 6.00 Build 0)  -->
<svg version="1.1" fill="#FFFFFF" id="Layer_1" xmlns="http://www.w3.org/2000/svg" xmlns:xlink="http://www.w3.org/1999/xlink" x="0px" y="0px"
	 viewBox="131 -131 512 512" style="enable-background:new 131 -131 512 512;" xml:space="preserve">
<g id="XMLID_2_">
	<path id="XMLID_7_" d="M386.6,8.9c25.6,0,46.9-20.5,46.9-46.9c0-8.5-2.6-17.1-6.8-23.9L386.6-131l-40.1,69.1
		c-4.3,6.8-6.8,15.4-6.8,23.9C339.6-12.4,361,8.9,386.6,8.9z M493.2,241.1l-24.7-24.7l-24.7,24.7c-30.7,30.7-83.6,30.7-113.5,0
		l-24.7-24.7l-24.7,24.7c-15.4,15.4-35,23.9-56.3,23.9c-17.1,0-32.4-5.1-45.2-14.5V358c0,12.8,10.2,23,23,23h372.1
		c12.8,0,23-10.2,23-23V250.4c-12.8,9.4-29,14.5-45.2,14.5C529.1,264.9,508.6,256.4,493.2,241.1z M525.7,78.1H409.6V31.2h-46.9v46.9
		H246.6c-38.4,0-70,31.6-70,70v35.8c0,24.7,20.5,45.2,45.2,45.2c11.9,0,23.9-5.1,32.4-13.7l49.5-49.5l49.5,49.5
		c17.1,17.1,46.9,17.1,64.9,0l49.5-49.5l49.5,49.5c8.5,8.5,19.6,13.7,32.4,13.7c24.7,0,45.2-20.5,45.2-45.2V148
		C595.6,109.6,564.9,78.1,525.7,78.1z"/>
</g>
</svg>
