<svg version="1.2" xmlns="http://www.w3.org/2000/svg" viewBox="0 0 1394 720" width="500" height="500">
	<title>MELIÁ HOTRAM LOGO_new color-ai</title>
	<style>
		tspan { white-space:pre } 
		.s0 { fill: white } 
		.t1 { font-size: 12px;fill: #2c2e35;font-family: "Myriad Pro" } 
	</style>
	<g id="_Artboards_">
	</g>
	<g id="Layer 1">
		<g id="&lt;Group&gt;">
		</g>
		<g id="&lt;Group&gt;">
		</g>
		<g id="&lt;Group&gt;">
		</g>
		<g id="&lt;Group&gt;">
			<path id="&lt;Path&gt;" class="s0" d="m518.8 313.9l-10.3-75-37.2 75h-6l-37.7-75.7-10.2 75.7h-16.2l16.9-118.4h5.6l44.6 89.7 44.2-89.7h5.6l17.1 118.4z"/>
			<path id="&lt;Path&gt;" class="s0" d="m589.4 211.8v30.4h53.2v16.1h-53.2v39.3h53.2v16.3h-69.7v-118.4h70.2v16.3z"/>
			<path id="&lt;Path&gt;" class="s0" d="m695.3 313.9v-118.4h16.5v102.3h43.7v16.1z"/>
			<path id="&lt;Path&gt;" class="s0" d="m800.1 195.5h16.4v118.4h-16.4z"/>
			<path id="&lt;Compound Path&gt;" fill-rule="evenodd" class="s0" d="m948.4 313.9l-17.8-37.3h-45.8l-17.7 37.3h-18.4l56.1-118.4h6.1l55.3 118.4zm-54.6-151.6q-1.5 0.1-2.8 0.9-1.2 0.9-2.3 2.1-1 1.3-1.8 2.7-0.8 1.4-1.4 2.5l-10.6-8.1q1.9-2.8 3.8-5.4 1.9-2.6 4.1-4.7 2.2-2 5-3.2 2.8-1.3 6.6-1.5 3.6 0 7.3 1 3.6 1.1 6.8 2.5 3.3 1.4 6.1 2.6 2.8 1.1 4.8 1 1.5-0.1 2.9-0.9 1.4-0.9 2.6-2.3 1.2-1.3 2.2-2.7 1-1.5 1.8-2.6l10.2 7.7q-1.5 3.1-3.3 5.9-1.9 2.7-4.2 4.9-2.3 2.1-5.3 3.4-2.9 1.3-6.5 1.4-3.1 0.1-6.6-1.1-3.6-1.1-7.1-2.5-3.5-1.4-6.7-2.5-3.2-1.2-5.6-1.1zm14 65.7l-15.5 32.6h30.9z"/>
			<path id="&lt;Path&gt;" class="s0" d="m506.1 447v-29.4h-28.3v29.4h-9v-63.7h9v25.6h28.3v-25.6h8.9v63.7z"/>
			<path id="&lt;Compound Path&gt;" fill-rule="evenodd" class="s0" d="m588 438.9q-9.7 9.7-23.8 9.7-14 0-23.9-9.7-9.7-9.6-9.7-23.5 0-9.1 4.4-17 4.4-7.8 12.1-12.2 7.7-4.5 16.7-4.5 14.4 0 24.2 9.7 9.7 9.7 9.7 23.7 0 14-9.7 23.8zm-2.6-36.2q-3.3-5.7-9-9-5.8-3.3-12.3-3.3-6.5 0-12.2 3.3-5.7 3.4-9 9.1-3.2 5.6-3.2 12.6 0 10.3 7.1 17.5 7.2 7.1 17.3 7.1 6.6 0 12.4-3.3 5.7-3.3 8.9-9 3.3-5.6 3.3-12.6 0-3.4-0.8-6.6-0.9-3.1-2.5-5.8z"/>
			<path id="&lt;Path&gt;" class="s0" d="m665.8 392v55h-9v-55h-13.7v-8.7h36.3v8.7z"/>
			<path id="&lt;Compound Path&gt;" fill-rule="evenodd" class="s0" d="m729.9 447l-22-28.3h-1.4v28.3h-8.9v-63.7h13.6q5.1 0 8.6 0.2 3.6 0.2 5.5 0.7 5.8 1.4 9.6 5.8 1.9 2.3 2.8 5 0.9 2.6 0.9 5.9 0 5.2-2.5 9.4-2.6 4.3-7.4 6.3-3.8 1.7-9.8 2l22 28.4zm-1.8-51q-0.7-1.1-1.7-1.8-0.9-0.8-2-1.2-1.2-0.5-3.3-0.8-2.1-0.2-5.2-0.2h-9.4v18l9.2 0.1q2.9 0 5.1-0.3 2.1-0.3 3.3-0.8 2.6-1 4-3.2 1.4-2.2 1.4-4.9 0-2.7-1.4-4.9z"/>
			<path id="&lt;Compound Path&gt;" fill-rule="evenodd" class="s0" d="m803.1 447l-9.6-20h-24.7l-9.5 20h-9.9l30.2-63.7h3.2l29.9 63.7zm-21.9-46.2l-8.3 17.5h16.6z"/>
			<path id="&lt;Path&gt;" class="s0" d="m886.7 447l-5.5-40.4-20.1 40.4h-3.2l-20.3-40.7-5.5 40.7h-8.7l9.1-63.7h3l24 48.3 23.8-48.3h3.1l9.1 63.7z"/>
			<path id="&lt;Path&gt;" class="s0" d="m531.7 484.8h297.6v2.7h-297.6z"/>
			<path id="&lt;Path&gt;" class="s0" d="m555.4 537.4h4l12 28.1 12.3-28.1h4l-15.9 36.4h-0.8z"/>
			<path id="&lt;Path&gt;" class="s0" d="m599.3 537.4h3.7v36.4h-3.7z"/>
			<path id="&lt;Path&gt;" class="s0" d="m617.4 537.4h20.9v3.5h-17.2v11.5h17.1v3.5h-17.1v14.3h17.1v3.6h-20.8z"/>
			<path id="&lt;Path&gt;" class="s0" d="m647.1 540.9v-3.5h19.9v3.5h-8.1v32.9h-3.7v-32.9z"/>
			<path id="&lt;Path&gt;" class="s0" d="m678.4 573.8v-36.4h0.8l24.2 27.9v-27.9h3.6v36.4h-0.8l-24-27.6v27.6z"/>
			<path id="&lt;Compound Path&gt;" fill-rule="evenodd" class="s0" d="m736.8 537.4l17 36.4h-3.9l-5.7-12h-15.7l-5.7 12h-4.1l17.3-36.4zm-0.5 7.7l-6.2 13.2h12.4z"/>
			<path id="&lt;Path&gt;" class="s0" d="m763.9 573.8l5.2-36.4h0.6l14.8 29.9 14.7-29.9h0.6l5.2 36.4h-3.6l-3.6-26-12.8 26h-1l-13-26.2-3.6 26.2z"/>
		</g>
		<g id="&lt;Group&gt;">
		</g>
		<g id="&lt;Group&gt;">
		</g>
		<g id="&lt;Group&gt;">
		</g>
		<text id="facebook profile
" style="transform: matrix(2,0,0,2,323.713,-70.333)" >
			<tspan x="0" y="0" class="t1">
</tspan>
		</text>
	</g>
</svg>